HIERARCHY
ROOT Hips
{
 OFFSET 0.000000 0.000000 0.000000
 CHANNELS 6 Xposition Yposition Zposition Yrotation Xrotation Zrotation
 JOINT Chest
 {
  OFFSET 0.000000 10.540452 0.000464
  CHANNELS 3 Yrotation Xrotation Zrotation
  JOINT Chest2
  {
   OFFSET 0.000000 11.638726 -0.000843
   CHANNELS 3 Yrotation Xrotation Zrotation
   JOINT Chest3
   {
    OFFSET 0.000000 10.516409 0.000000
    CHANNELS 3 Yrotation Xrotation Zrotation
    JOINT Chest4
    {
     OFFSET 0.000000 10.516409 0.000000
     CHANNELS 3 Yrotation Xrotation Zrotation
     JOINT Neck
     {
      OFFSET 0.000000 14.787010 0.000000
      CHANNELS 3 Yrotation Xrotation Zrotation
      JOINT Head
      {
       OFFSET 0.000000 9.788178 -0.002005
       CHANNELS 3 Yrotation Xrotation Zrotation
       End Site
       {
        OFFSET 0.000000 18.731488 -0.001047
       }
      }
     }
     JOINT RightCollar
     {
      OFFSET -3.212580 8.250193 0.000000
      CHANNELS 3 Yrotation Xrotation Zrotation
      JOINT RightShoulder
      {
       OFFSET -14.986189 0.000000 0.000000
       CHANNELS 3 Yrotation Xrotation Zrotation
       JOINT RightElbow
       {
        OFFSET 0.000000 -32.028138 0.000000
        CHANNELS 3 Yrotation Xrotation Zrotation
        JOINT RightWrist
        {
         OFFSET 0.000000 -26.197173 0.000000
         CHANNELS 3 Yrotation Xrotation Zrotation
         End Site
         {
          OFFSET 0.000000 -19.593847 0.000000
         }
        }
       }
      }
     }
     JOINT LeftCollar
     {
      OFFSET 3.212580 8.250193 0.000000
      CHANNELS 3 Yrotation Xrotation Zrotation
      JOINT LeftShoulder
      {
       OFFSET 14.986189 0.000000 0.000000
       CHANNELS 3 Yrotation Xrotation Zrotation
       JOINT LeftElbow
       {
        OFFSET 0.000000 -32.028138 0.000000
        CHANNELS 3 Yrotation Xrotation Zrotation
        JOINT LeftWrist
        {
         OFFSET 0.000000 -26.197173 0.000000
         CHANNELS 3 Yrotation Xrotation Zrotation
         End Site
         {
          OFFSET 0.000000 -19.593847 0.000000
         }
        }
       }
      }
     }
    }
   }
  }
 }
 JOINT RightHip
 {
  OFFSET -8.556308 -0.002274 -0.000232
  CHANNELS 3 Yrotation Xrotation Zrotation
  JOINT RightKnee
  {
   OFFSET 0.000000 -44.305713 0.000220
   CHANNELS 3 Yrotation Xrotation Zrotation
   JOINT RightAnkle
   {
    OFFSET 0.000000 -43.334746 0.000371
    CHANNELS 3 Yrotation Xrotation Zrotation
    JOINT RightToe
    {
     OFFSET 0.000000 -7.615191 17.280741
     CHANNELS 3 Yrotation Xrotation Zrotation
     End Site
     {
      OFFSET 0.000000 -1.619164 7.036159
     }
    }
   }
  }
 }
 JOINT LeftHip
 {
  OFFSET 8.556308 -0.002274 -0.000232
  CHANNELS 3 Yrotation Xrotation Zrotation
  JOINT LeftKnee
  {
   OFFSET 0.000000 -44.305713 0.000220
   CHANNELS 3 Yrotation Xrotation Zrotation
   JOINT LeftAnkle
   {
    OFFSET 0.000000 -43.334746 0.000371
    CHANNELS 3 Yrotation Xrotation Zrotation
    JOINT LeftToe
    {
     OFFSET 0.000000 -7.615191 17.280741
     CHANNELS 3 Yrotation Xrotation Zrotation
     End Site
     {
      OFFSET 0.000000 -1.619164 7.036159
     }
    }
   }
  }
 }
}
MOTION
Frames: 7
Frame Time: 0.008333
-51.207945 97.094741 -70.474226 14.132484 -5.235417 1.206023 2.907719 3.892422 0.178085 1.290057 1.731057 0.054699 1.290057 1.731057 0.054699 0.967315 1.298415 0.037366 5.887861 16.061634 -3.744306 12.285929 -5.706522 -9.063864 -6.380382 1.998259 11.922003 7.948140 -4.921337 -18.169443 41.072154 -9.795811 0.617999 0.749355 -4.860595 -8.743210 -7.785607 3.172213 -8.078129 3.919341 -10.225548 12.443501 -49.611972 -8.346741 1.531571 -3.055986 -2.848339 5.213859 -5.274229 11.686764 -1.111605 0.855371 0.150548 0.840870 -8.443048 -4.732352 0.515875 0.002259 -0.167454 0.044680 7.965195 8.336716 -0.071946 -2.785945 1.917445 -1.072438 -10.523458 -3.255838 0.593007 -0.001071 -0.102377 -0.006671
-51.221596 97.102764 -70.469039 14.081876 -5.189337 1.201951 2.906546 3.868572 0.188250 1.289470 1.720520 0.059374 1.289470 1.720520 0.059374 0.966863 1.290522 0.040896 5.894147 16.069813 -3.750665 12.298828 -5.689708 -9.076772 -6.416584 2.010671 11.932972 7.969191 -4.888125 -18.275357 41.066833 -9.979007 0.628126 0.748971 -4.864434 -8.707568 -7.745189 3.175758 -8.114553 3.867731 -10.179782 12.436573 -49.253719 -8.279362 1.660450 -3.163505 -3.000552 5.066146 -5.220228 11.680619 -1.094100 0.835778 0.057841 0.862423 -8.407559 -4.649275 0.487937 0.001949 -0.159839 0.029291 7.998142 8.325640 -0.069052 -2.763117 1.866103 -1.065791 -10.529989 -3.222540 0.584743 -0.001022 -0.096614 -0.007343
-51.238012 97.109951 -70.466044 14.027785 -5.132481 1.200622 2.905248 3.847659 0.197775 1.288831 1.711285 0.063747 1.288831 1.711285 0.063747 0.966373 1.283605 0.044197 5.899893 16.074998 -3.759199 12.311841 -5.678189 -9.093898 -6.459512 2.021993 11.944015 7.958785 -4.862339 -18.404356 41.094664 -10.209359 0.630091 0.756699 -4.870397 -8.664910 -7.684037 3.162461 -8.123704 3.830809 -10.124438 12.398461 -48.796544 -8.236127 1.794774 -3.252511 -3.156332 4.948675 -5.175672 11.655785 -1.083931 0.826594 -0.018796 0.885681 -8.380569 -4.576213 0.465996 0.001655 -0.152270 0.015365 8.022251 8.302448 -0.061779 -2.739920 1.812568 -1.074203 -10.517455 -3.186921 0.581054 -0.000982 -0.090700 -0.008940
-51.254892 97.116526 -70.464371 13.964889 -5.069664 1.205725 2.909669 3.830689 0.206838 1.290734 1.703801 0.067843 1.290734 1.703801 0.067843 0.967790 1.278001 0.047280 5.897800 16.071999 -3.769758 12.312017 -5.682530 -9.113099 -6.510897 2.021838 11.951156 7.890723 -4.842992 -18.541124 41.178364 -10.485005 0.619415 0.761867 -4.872880 -8.611316 -7.599039 3.130138 -8.118098 3.794091 -10.058580 12.342865 -48.253837 -8.204026 1.922222 -3.285615 -3.335451 4.867762 -5.142384 11.624403 -1.083821 0.837202 -0.094129 0.907652 -8.360803 -4.511876 0.453875 0.001268 -0.140078 -0.001217 8.059664 8.280607 -0.062636 -2.725078 1.748148 -1.073314 -10.506068 -3.150565 0.566386 -0.000895 -0.083780 -0.007167
-51.275591 97.122828 -70.463741 13.899371 -5.000623 1.206447 2.912263 3.814767 0.221836 1.291776 1.696820 0.074584 1.291776 1.696820 0.074584 0.968554 1.272779 0.052347 5.893772 16.069490 -3.781983 12.309133 -5.685990 -9.134651 -6.564658 2.007743 11.955200 7.763556 -4.816697 -18.670429 41.307090 -10.802130 0.588188 0.777463 -4.875303 -8.566027 -7.478573 3.089512 -8.099005 3.762374 -9.983329 12.263752 -47.621347 -8.196306 2.052554 -3.273571 -3.506623 4.817128 -5.127704 11.578023 -1.079650 0.869499 -0.161362 0.925202 -8.332191 -4.448821 0.443712 0.000912 -0.128502 -0.015870 8.082287 8.244692 -0.057924 -2.697482 1.694456 -1.081387 -10.482557 -3.122449 0.554654 -0.000776 -0.074119 -0.004847
-51.296212 97.129238 -70.463895 13.836445 -4.932025 1.206119 2.906163 3.800827 0.238222 1.288944 1.690724 0.082001 1.288944 1.690724 0.082001 0.966411 1.268223 0.057930 5.890054 16.063388 -3.794511 12.307361 -5.695998 -9.157333 -6.604757 1.990177 11.962572 7.588367 -4.815237 -18.765263 41.465018 -11.112161 0.531812 0.786255 -4.888898 -8.531492 -7.338255 3.045643 -8.077515 3.740546 -9.930130 12.172749 -46.880042 -8.193565 2.170539 -3.227359 -3.687628 4.776054 -5.137561 11.531933 -1.081312 0.908806 -0.227476 0.939608 -8.300724 -4.389223 0.442803 0.000561 -0.116770 -0.029686 8.110044 8.208547 -0.045930 -2.675627 1.640033 -1.097754 -10.465952 -3.097359 0.544397 -0.000628 -0.062647 -0.001738
-51.317358 97.134488 -70.467342 13.774453 -4.847808 1.208188 2.896543 3.780489 0.255341 1.284550 1.681787 0.089811 1.284550 1.681787 0.089811 0.963096 1.261536 0.063818 5.879682 16.062905 -3.806782 12.292496 -5.696551 -9.176505 -6.631318 1.980588 11.975790 7.366291 -4.848086 -18.860184 41.646809 -11.439408 0.472592 0.787001 -4.908237 -8.497105 -7.176353 3.029318 -8.058144 3.720814 -9.926267 12.068418 -46.036872 -8.193823 2.284987 -3.141557 -3.863172 4.749546 -5.153341 11.464713 -1.084037 0.952471 -0.290726 0.950404 -8.268558 -4.329519 0.448186 0.000197 -0.105246 -0.043916 8.141227 8.154155 -0.044309 -2.659743 1.591272 -1.107063 -10.460239 -3.077310 0.533354 -0.000477 -0.051170 0.001587
